<?xml version="1.0" encoding="UTF-8"?>
<svg id="_レイヤー_1" xmlns="http://www.w3.org/2000/svg" version="1.1" viewBox="0 0 800 800">
  <!-- Generator: Adobe Illustrator 29.2.1, SVG Export Plug-In . SVG Version: 2.1.0 Build 116)  -->
  <defs>
    <style>
      .st0 {
        fill: #fff;
      }
    </style>
  </defs>
  <path class="st0" d="M590,92.4c-1.6,1-83.7,82.6-182.2,181.3l-179.3,179.3-20,70.9c-11,39-20,72.1-20,73.5,0,4.3,3.5,8.9,7.5,10,4.3,1.2-2.5,2.9,76-19.3,34.1-9.6,64-18,66.5-18.6,4.2-1.1,17.2-13.9,184.8-181.3,103.7-103.7,180.9-181.6,181.8-183.6,3.3-6.9,3.6-6.4-52.3-62.4-51.1-50.9-51.9-51.7-55.8-51.7s-5.3.9-7,1.9h0ZM603,123.5l6,6-171.3,171.3-171.2,171.2-6.2-6.3-6.3-6.2,171-171c94.1-94.1,171.2-171,171.5-171s3.2,2.7,6.5,6ZM638.2,158.7l13.3,13.3-170.7,170.7c-94,94-171.3,170.8-171.8,170.8s-6.9-5.9-14-13l-13-13,171-171c94.1-94.1,171.2-171,171.5-171s6.4,6,13.7,13.2ZM673.7,194.2l5.8,5.8-171.2,171.2-171.3,171.3-5.7-5.7c-3.2-3.2-5.8-6.2-5.8-6.8,0-1.3,340.2-341.5,341.5-341.5s3.5,2.6,6.7,5.7ZM314.9,552.5c-.3.3-16.6,5.1-36.2,10.7l-35.7,10.1-9.9-9.8-9.9-9.8,10.3-36.7,10.4-36.6,35.8,35.8c19.6,19.6,35.5,36,35.2,36.3ZM218,579.5c.3.5-.1,1-1,1s-1.3-.5-1-1c.3-.6.8-1,1-1s.7.4,1,1Z"/>
  <path class="st0" d="M97.5,97.3c-2.1,2.2-3,4.2-3.5,8.3-.3,3-.5,136.7-.3,297.1l.3,291.7,2.1,2.8c1.1,1.5,3.2,3.4,4.5,4,1.9,1,65.3,1.3,297.7,1.3s295.6-.2,298.2-1.5c6.4-3.3,6,10.4,6-187.2s0-179.9-1.9-182.9c-3.8-6.3-12.8-7-17.5-1.3l-2.6,3.1v347.8H116.5V116.5h170.1c156.3,0,170.4,0,173.6-1.7,7.1-3.3,8.2-12.7,2.2-17.7l-3.1-2.6H100.3s-2.8,2.8-2.8,2.8Z"/>
</svg>