<?xml version="1.0" standalone="no"?>
<!DOCTYPE svg PUBLIC "-//W3C//DTD SVG 20010904//EN"
 "http://www.w3.org/TR/2001/REC-SVG-20010904/DTD/svg10.dtd">
<svg version="1.0" xmlns="http://www.w3.org/2000/svg"
 width="800.000000pt" height="800.000000pt" viewBox="0 0 800.000000 800.000000"
 preserveAspectRatio="xMidYMid meet">

<g transform="translate(0.000000,800.000000) scale(0.100000,-0.100000)"
fill="#000000" stroke="none">
<path d="M5925 7051 c-16 -10 -837 -826 -1822 -1813 l-1793 -1793 -200 -709
c-110 -390 -200 -721 -200 -735 0 -43 35 -89 75 -100 43 -12 -25 -29 760 193
341 96 640 180 665 186 42 11 172 139 1848 1813 1037 1037 1809 1816 1818
1836 33 69 36 64 -523 624 -511 509 -519 517 -558 517 -22 0 -53 -9 -70 -19z
m130 -311 l60 -60 -1713 -1713 -1712 -1712 -62 63 -63 62 1710 1710 c941 941
1712 1710 1715 1710 3 0 32 -27 65 -60z m352 -352 l133 -133 -1707 -1707
c-940 -940 -1713 -1708 -1718 -1708 -6 0 -69 59 -140 130 l-130 130 1710 1710
c941 941 1712 1710 1715 1710 3 0 64 -60 137 -132z m355 -355 l58 -58 -1712
-1712 -1713 -1713 -57 57 c-32 32 -58 62 -58 68 0 13 3402 3415 3415 3415 5 0
35 -26 67 -57z m-3588 -3583 c-3 -3 -166 -51 -362 -107 l-357 -101 -99 98 -99
98 103 367 104 366 358 -358 c196 -196 355 -360 352 -363z m-969 -270 c3 -5
-1 -10 -10 -10 -9 0 -13 5 -10 10 3 6 8 10 10 10 2 0 7 -4 10 -10z"/>
<path d="M1000 7002 c-21 -22 -30 -42 -35 -83 -3 -30 -5 -1367 -3 -2971 l3
-2917 21 -28 c11 -15 32 -34 45 -40 19 -10 653 -13 2977 -13 2620 0 2956 2
2982 15 64 33 60 -104 60 1872 0 1741 -1 1799 -19 1829 -38 63 -128 70 -175
13 l-26 -31 0 -1739 0 -1739 -2820 0 -2820 0 0 2820 0 2820 1701 0 c1563 0
1704 1 1736 17 71 33 82 127 22 177 l-31 26 -1795 0 -1795 0 -28 -28z"/>
</g>
</svg>
